<?xml version="1.0" encoding="UTF-8"?>
<svg id="Layer_1" data-name="Layer 1" xmlns="http://www.w3.org/2000/svg" xmlns:xlink="http://www.w3.org/1999/xlink" viewBox="0 0 1080 1080">
  <defs>
    <style>
      .cls-1 {
        fill: url(#linear-gradient);
      }
    </style>
    <linearGradient id="linear-gradient" x1="225.86" y1="540" x2="874.01" y2="540" gradientUnits="userSpaceOnUse">
      <stop offset="0" stop-color="#32c0f4"/>
      <stop offset=".18" stop-color="#2db5eb"/>
      <stop offset=".5" stop-color="#209ad5"/>
      <stop offset=".9" stop-color="#0b6db2"/>
      <stop offset="1" stop-color="#0662a9"/>
    </linearGradient>
  </defs>
  <path class="cls-1" d="M426.36,63.69c10.84,0,9.95,9.95,9.95,9.95v169.85l-164.94,167.98V75.74c0-14.25,13.32-12.85,13.32-12.85,0,0,130.83.8,141.68.8ZM270.6,432.9v141.51c0,10.67,9.01,9.01,9.01,9.01h24.32s160.05-163.7,168.32-171.97c8.27-8.27,15.92,0,15.92,0l169.08,171.97h161.63c6.04,0,5.82-3.23,5.82-7.18s-5.97-8.96-5.97-8.96c0,0-224.86-229.78-235.78-240.7-10.92-10.92,0-20.92,0-20.92,0,0,233.15-230.2,233.35-237.3.2-7.11-6.5-5.68-6.5-5.68,0,0-171.75-.2-176.62,0-4.87.2-8.53,5.68-8.53,5.68l-354.05,364.54ZM225.86,884.46h38.29v-96.26l70.96,96.26h45.32l-78.34-100.47,73.42-82.91h-43.56l-67.8,78.34v-148.95h-38.29v253.99ZM388.51,793.12c0,55.51,40.75,95.91,96.96,95.91s97.31-41.1,97.31-96.26-40.75-96.26-97.31-96.26-96.96,41.1-96.96,96.61ZM427.16,793.12c0-35.83,23.89-62.53,58.32-62.53s59.02,26.35,59.02,62.18-24.94,62.18-59.02,62.18-58.32-25.65-58.32-61.83ZM787.95,701.08h-36.18v24.24c-4.57-6.67-23.19-28.81-58.67-28.81-52.7,0-89.58,40.05-89.58,95.91s34.78,96.61,87.12,96.61c34.78,0,54.45-21.08,59.37-28.81v19.93l14.54,17.39-13.49,15.16,7.92,24.14-8.98,12.01,10.39,9.18-10.81,13.59,13.91,8.35-12.44,6.73,6.17,21.81,20.4,8.94h10.32v-316.36ZM751.06,792.42c0,39.7-24.24,62.53-54.8,62.53s-54.45-25.65-54.45-62.53,23.54-61.83,54.8-61.83c34.08,0,54.45,28.1,54.45,61.83ZM826.24,655.76c0,13.35,10.54,23.89,23.89,23.89s23.89-10.54,23.89-23.89-10.54-23.89-23.89-23.89-23.89,10.54-23.89,23.89ZM831.16,884.46h38.29v-183.38h-38.29v183.38Z"/>
</svg>
