<?xml version="1.0" encoding="UTF-8"?>
<svg id="Layer_1" data-name="Layer 1" xmlns="http://www.w3.org/2000/svg" viewBox="0 0 1080 1080">
  <defs>
    <style>
      .cls-1 {
        fill: #1abfd1;
      }
    </style>
  </defs>
  <path class="cls-1" d="M413.53,86.95c11.1,0,10.18,10.18,10.18,10.18v173.83l-168.81,171.92V99.28c0-14.59,13.63-13.15,13.63-13.15,0,0,133.9.82,145,.82ZM254.11,464.82v144.83c0,10.92,9.22,9.22,9.22,9.22h24.9s163.8-167.54,172.26-176c8.46-8.46,16.29,0,16.29,0l173.04,176h165.42c6.18,0,5.95-3.31,5.95-7.35s-6.11-9.17-6.11-9.17c0,0-230.14-235.17-241.31-246.34-11.17-11.17,0-21.42,0-21.42,0,0,238.62-235.6,238.82-242.87.21-7.27-6.65-5.82-6.65-5.82,0,0-175.78-.21-180.77,0s-8.73,5.82-8.73,5.82L254.11,464.82ZM208.32,926.97h39.19v-98.51l72.63,98.51h46.38l-80.18-102.83,75.14-84.85h-44.58l-69.39,80.18v-152.45h-39.19v259.95ZM374.79,833.49c0,56.81,41.71,98.16,99.23,98.16s99.59-42.07,99.59-98.51-41.71-98.51-99.59-98.51-99.23,42.07-99.23,98.87ZM414.34,833.49c0-36.67,24.45-64,59.68-64s60.4,26.97,60.4,63.64-25.53,63.64-60.4,63.64-59.68-26.25-59.68-63.28ZM783.59,739.29h-37.03v24.81c-4.67-6.83-23.73-29.48-60.04-29.48-53.93,0-91.68,40.99-91.68,98.16s35.59,98.87,89.17,98.87c35.59,0,55.73-21.57,60.76-29.48v92.04h38.83v-254.92ZM745.84,832.77c0,40.63-24.81,64-56.09,64s-55.73-26.25-55.73-64,24.09-63.28,56.09-63.28c34.88,0,55.73,28.76,55.73,63.28ZM822.78,692.91c0,13.66,10.79,24.45,24.45,24.45s24.45-10.79,24.45-24.45-10.79-24.45-24.45-24.45-24.45,10.79-24.45,24.45ZM827.81,926.97h39.19v-187.68h-39.19v187.68Z"/>
</svg>
